<svg width="80" height="78" viewBox="0 0 80 78" fill="none" xmlns="http://www.w3.org/2000/svg">
<path d="M66.6666 39V64.25C66.6666 66.1356 66.6666 67.0784 66.0808 67.6642C65.495 68.25 64.5522 68.25 62.6666 68.25H19.3332C16.5048 68.25 15.0906 68.25 14.2119 67.3713C13.3333 66.4926 13.3333 65.0784 13.3333 62.25V58C13.3333 55.1716 13.3333 53.7574 14.2119 52.8787C15.0906 52 16.5048 52 19.3333 52H62.6666C64.5522 52 65.495 52 66.0808 51.4142C66.6666 50.8284 66.6666 49.8856 66.6666 48V13.75C66.6666 11.8644 66.6666 10.9216 66.0808 10.3358C65.495 9.75 64.5522 9.75 62.6666 9.75H17.3332C15.4476 9.75 14.5048 9.75 13.919 10.3358C13.3333 10.9216 13.3333 11.8644 13.3333 13.75V60.125" stroke="#456268"/>
<path d="M30 26L50 26" stroke="#456268" stroke-linecap="round"/>
</svg>
