<svg width="35" height="35" viewBox="0 0 35 35" fill="none" xmlns="http://www.w3.org/2000/svg">
<path d="M5.83301 17.125C5.83301 15.2394 5.83301 14.2966 6.41879 13.7108C7.00458 13.125 7.94739 13.125 9.83301 13.125H25.1663C27.052 13.125 27.9948 13.125 28.5806 13.7108C29.1663 14.2966 29.1663 15.2394 29.1663 17.125V24.625C29.1663 27.4534 29.1663 28.8676 28.2877 29.7463C27.409 30.625 25.9948 30.625 23.1663 30.625H11.833C9.00458 30.625 7.59037 30.625 6.71169 29.7463C5.83301 28.8676 5.83301 27.4534 5.83301 24.625V17.125Z" stroke="white"/>
<path d="M23.3327 11.6667V10.2083C23.3327 9.4343 23.3327 9.04728 23.2899 8.72237C22.9945 6.4787 21.229 4.71316 18.9853 4.41778C18.6604 4.375 18.2734 4.375 17.4993 4.375V4.375C16.7253 4.375 16.3383 4.375 16.0134 4.41778C13.7697 4.71316 12.0042 6.4787 11.7088 8.72237C11.666 9.04728 11.666 9.4343 11.666 10.2083V11.6667" stroke="white" stroke-linecap="round"/>
<ellipse cx="17.4997" cy="21.875" rx="2.91667" ry="2.91667" fill="white"/>
</svg>
