<svg width="70" height="70" viewBox="0 0 70 70" fill="none" xmlns="http://www.w3.org/2000/svg">
<circle cx="35" cy="35" r="27.25" stroke="#456268" stroke-width="2" stroke-linecap="round"/>
<path d="M24.2419 48.8273C25.4074 47.8179 27.0244 47.0257 28.8895 46.4873C30.7624 45.9467 32.8685 45.6666 35.0002 45.6666C37.1318 45.6666 39.2379 45.9467 41.1108 46.4873C42.9759 47.0257 44.5929 47.8179 45.7584 48.8273" stroke="#456268" stroke-width="2" stroke-linecap="round"/>
<path d="M26.2502 32.3333C27.9991 32.3333 29.4168 30.9156 29.4168 29.1667C29.4168 27.4178 27.9991 26 26.2502 26C24.5013 26 23.0835 27.4178 23.0835 29.1667C23.0835 30.9156 24.5013 32.3333 26.2502 32.3333Z" fill="#456268" stroke="#456268" stroke-width="0.5" stroke-linecap="round"/>
<circle cx="43.7502" cy="29.1667" r="3.16667" fill="#456268" stroke="#456268" stroke-width="0.5" stroke-linecap="round"/>
</svg>
