<svg width="80" height="120" viewBox="0 0 80 120" fill="none" xmlns="http://www.w3.org/2000/svg">
<path d="M13.3333 45C13.3333 30.8579 13.3333 23.7868 16.2622 19.3934C19.1911 15 23.9052 15 33.3333 15H46.6666C56.0947 15 60.8087 15 63.7376 19.3934C66.6666 23.7868 66.6666 30.8579 66.6666 45V79.138C66.6666 92.5545 66.6666 99.2627 63.8523 101.314C61.038 103.366 57.5214 99.2218 50.4884 90.9328L48.2375 88.28C44.283 83.6193 42.3057 81.2889 39.9999 81.2889C37.6942 81.2889 35.7169 83.6193 31.7623 88.28L29.5115 90.9328C22.4784 99.2218 18.9619 103.366 16.1476 101.314C13.3333 99.2627 13.3333 92.5545 13.3333 79.138V45Z" stroke="#456268"/>
</svg>
