<svg width="67" height="67" viewBox="0 0 67 67" fill="none" xmlns="http://www.w3.org/2000/svg">
<path d="M11.1665 25.125C11.1665 17.229 11.1665 13.281 13.6195 10.828C16.0725 8.375 20.0205 8.375 27.9165 8.375H39.0832C46.9792 8.375 50.9272 8.375 53.3802 10.828C55.8331 13.281 55.8331 17.229 55.8331 25.125V44.1854C55.8331 51.6762 55.8331 55.4217 53.4762 56.5672C51.1192 57.7128 48.1741 55.3988 42.2839 50.7708L40.3988 49.2897C37.0869 46.6874 35.4309 45.3863 33.4998 45.3863C31.5688 45.3863 29.9128 46.6874 26.6008 49.2897L24.7157 50.7708C18.8256 55.3988 15.8805 57.7128 13.5235 56.5672C11.1665 55.4217 11.1665 51.6762 11.1665 44.1854V25.125Z" fill="#456268" stroke="#456268" stroke-width="2"/>
</svg>
