<svg width="80" height="90" viewBox="0 0 80 90" fill="none" xmlns="http://www.w3.org/2000/svg">
<path d="M13.3333 33.75C13.3333 23.1434 13.3333 17.8401 16.2622 14.545C19.1911 11.25 23.9052 11.25 33.3333 11.25H46.6666C56.0947 11.25 60.8087 11.25 63.7376 14.545C66.6666 17.8401 66.6666 23.1434 66.6666 33.75V59.3535C66.6666 69.4159 66.6666 74.447 63.8523 75.9859C61.038 77.5247 57.5214 74.4163 50.4884 68.1996L48.2375 66.21C44.283 62.7145 42.3057 60.9667 39.9999 60.9667C37.6942 60.9667 35.7169 62.7145 31.7623 66.21L29.5115 68.1996C22.4784 74.4163 18.9619 77.5247 16.1476 75.9859C13.3333 74.447 13.3333 69.4159 13.3333 59.3535V33.75Z" stroke="#456268"/>
</svg>
