<svg width="80" height="90" viewBox="0 0 80 90" fill="none" xmlns="http://www.w3.org/2000/svg">
<path d="M13.3335 33.75C13.3335 23.1434 13.3335 17.8401 16.2624 14.545C19.1914 11.25 23.9054 11.25 33.3335 11.25H46.6668C56.0949 11.25 60.8089 11.25 63.7379 14.545C66.6668 17.8401 66.6668 23.1434 66.6668 33.75V59.3535C66.6668 69.4158 66.6668 74.447 63.8525 75.9858C61.0382 77.5247 57.5216 74.4163 50.4886 68.1996L48.2378 66.21C44.2832 62.7144 42.3059 60.9667 40.0001 60.9667C37.6944 60.9667 35.7171 62.7145 31.7625 66.21L29.5117 68.1996C22.4786 74.4163 18.9621 77.5247 16.1478 75.9858C13.3335 74.447 13.3335 69.4158 13.3335 59.3535V33.75Z" fill="#005773" stroke="#005773" stroke-width="2"/>
</svg>
