<svg width="67" height="67" viewBox="0 0 67 67" fill="none" xmlns="http://www.w3.org/2000/svg">
<path d="M11.1667 25.125C11.1667 17.229 11.1667 13.281 13.6197 10.828C16.0727 8.375 20.0207 8.375 27.9167 8.375H39.0834C46.9794 8.375 50.9275 8.375 53.3804 10.828C55.8334 13.281 55.8334 17.229 55.8334 25.125V44.1854C55.8334 51.6763 55.8334 55.4217 53.4764 56.5673C51.1194 57.7128 48.1743 55.3988 42.2842 50.7708L40.3991 49.2897C37.0871 46.6874 35.4311 45.3863 33.5001 45.3863C31.569 45.3863 29.913 46.6874 26.6011 49.2897L24.716 50.7708C18.8258 55.3988 15.8807 57.7128 13.5237 56.5673C11.1667 55.4217 11.1667 51.6763 11.1667 44.1854V25.125Z" stroke="#456268"/>
</svg>
