<svg width="80" height="120" viewBox="0 0 80 120" fill="none" xmlns="http://www.w3.org/2000/svg">
<path d="M13.3335 45C13.3335 30.8579 13.3335 23.7868 16.2624 19.3934C19.1914 15 23.9054 15 33.3335 15H46.6668C56.0949 15 60.8089 15 63.7379 19.3934C66.6668 23.7868 66.6668 30.8579 66.6668 45V79.138C66.6668 92.5544 66.6668 99.2627 63.8525 101.314C61.0382 103.366 57.5216 99.2217 50.4886 90.9328L48.2378 88.28C44.2832 83.6193 42.3059 81.2889 40.0001 81.2889C37.6944 81.2889 35.7171 83.6193 31.7625 88.28L29.5117 90.9328C22.4786 99.2218 18.9621 103.366 16.1478 101.314C13.3335 99.2627 13.3335 92.5545 13.3335 79.138V45Z" fill="#456268" stroke="#456268" stroke-width="2"/>
</svg>
