<svg width="30" height="30" viewBox="0 0 30 30" fill="none" xmlns="http://www.w3.org/2000/svg">
<path d="M24.1573 7.22215L24.5731 6.94436L24.5731 6.94436L24.1573 7.22215ZM24.1573 20.2778L24.5731 20.5556L24.5731 20.5556L24.1573 20.2778ZM22.7778 21.6573L22.5001 21.2416L22.5001 21.2416L22.7778 21.6573ZM17.5 22.4983L17.4978 21.9983C17.2225 21.9995 17 22.223 17 22.4983H17.5ZM17.5 22.5L17.9472 22.7236C17.9819 22.6542 18 22.5776 18 22.5H17.5ZM14.1056 25.7111L13.6584 25.9347L13.6584 25.9347L14.1056 25.7111ZM12.5 22.5H12C12 22.5776 12.0181 22.6542 12.0528 22.7236L12.5 22.5ZM12.5 22.4983H13C13 22.223 12.7775 21.9995 12.5022 21.9983L12.5 22.4983ZM7.22215 21.6573L7.49993 21.2416L7.49993 21.2416L7.22215 21.6573ZM5.84265 20.2778L6.25839 20.0001L6.25839 20.0001L5.84265 20.2778ZM5.84265 7.22215L6.25839 7.49993L6.25839 7.49993L5.84265 7.22215ZM7.22215 5.84265L6.94436 5.42692L6.94436 5.42692L7.22215 5.84265ZM22.7778 5.84265L23.0556 5.42692L23.0556 5.42692L22.7778 5.84265ZM25.5 13.75C25.5 12.0048 25.5006 10.6583 25.3921 9.59171C25.2827 8.51674 25.0584 7.67077 24.5731 6.94436L23.7416 7.49993C24.0989 8.03464 24.2959 8.69702 24.3972 9.69291C24.4994 10.6972 24.5 11.984 24.5 13.75H25.5ZM24.5731 20.5556C25.0584 19.8292 25.2827 18.9833 25.3921 17.9083C25.5006 16.8417 25.5 15.4952 25.5 13.75H24.5C24.5 15.516 24.4994 16.8028 24.3972 17.8071C24.2959 18.803 24.0989 19.4654 23.7416 20.0001L24.5731 20.5556ZM23.0556 22.0731C23.6562 21.6718 24.1718 21.1562 24.5731 20.5556L23.7416 20.0001C23.4133 20.4914 22.9914 20.9133 22.5001 21.2416L23.0556 22.0731ZM17.5022 22.9983C18.8484 22.9924 19.9237 22.9667 20.8057 22.8447C21.6957 22.7217 22.4211 22.497 23.0556 22.0731L22.5001 21.2416C22.0329 21.5538 21.468 21.7437 20.6687 21.8542C19.8615 21.9658 18.8488 21.9924 17.4978 21.9983L17.5022 22.9983ZM18 22.5V22.4983H17V22.5H18ZM16.3416 25.9348L17.9472 22.7236L17.0528 22.2764L15.4472 25.4875L16.3416 25.9348ZM13.6584 25.9347C14.2111 27.0403 15.7889 27.0403 16.3416 25.9348L15.4472 25.4875C15.2629 25.8561 14.737 25.8561 14.5528 25.4875L13.6584 25.9347ZM12.0528 22.7236L13.6584 25.9347L14.5528 25.4875L12.9472 22.2764L12.0528 22.7236ZM12 22.4983V22.5H13V22.4983H12ZM6.94436 22.0731C7.57886 22.497 8.30433 22.7217 9.19432 22.8447C10.0763 22.9667 11.1516 22.9924 12.4978 22.9983L12.5022 21.9983C11.1512 21.9924 10.1385 21.9658 9.33125 21.8542C8.53202 21.7437 7.96712 21.5538 7.49993 21.2416L6.94436 22.0731ZM5.42692 20.5556C5.82819 21.1562 6.34382 21.6718 6.94436 22.0731L7.49993 21.2416C7.00858 20.9133 6.5867 20.4914 6.25839 20.0001L5.42692 20.5556ZM4.5 13.75C4.5 15.4952 4.4994 16.8417 4.6079 17.9083C4.71725 18.9833 4.94155 19.8292 5.42692 20.5556L6.25839 20.0001C5.9011 19.4654 5.70407 18.803 5.60276 17.8071C5.5006 16.8028 5.5 15.516 5.5 13.75H4.5ZM5.42692 6.94436C4.94155 7.67077 4.71725 8.51674 4.6079 9.59171C4.4994 10.6583 4.5 12.0048 4.5 13.75H5.5C5.5 11.984 5.5006 10.6972 5.60276 9.69291C5.70407 8.69702 5.9011 8.03464 6.25839 7.49993L5.42692 6.94436ZM6.94436 5.42692C6.34382 5.82819 5.82819 6.34382 5.42692 6.94436L6.25839 7.49993C6.5867 7.00858 7.00858 6.5867 7.49993 6.25839L6.94436 5.42692ZM13.75 4.5C12.0048 4.5 10.6583 4.4994 9.5917 4.6079C8.51674 4.71725 7.67077 4.94155 6.94436 5.42692L7.49993 6.25839C8.03464 5.9011 8.69702 5.70407 9.69291 5.60276C10.6972 5.5006 11.984 5.5 13.75 5.5V4.5ZM16.25 4.5H13.75V5.5H16.25V4.5ZM23.0556 5.42692C22.3292 4.94155 21.4832 4.71725 20.4083 4.6079C19.3417 4.4994 17.9952 4.5 16.25 4.5V5.5C18.016 5.5 19.3028 5.5006 20.3071 5.60276C21.303 5.70407 21.9653 5.9011 22.5001 6.25839L23.0556 5.42692ZM24.5731 6.94436C24.1718 6.34382 23.6562 5.82819 23.0556 5.42692L22.5001 6.25839C22.9914 6.5867 23.4133 7.00858 23.7416 7.49993L24.5731 6.94436Z" fill="#79A3B1"/>
<ellipse cx="20" cy="13.75" rx="1.25" ry="1.25" fill="#79A3B1"/>
<ellipse cx="15" cy="13.75" rx="1.25" ry="1.25" fill="#79A3B1"/>
<ellipse cx="10" cy="13.75" rx="1.25" ry="1.25" fill="#79A3B1"/>
</svg>
