<svg width="65" height="65" viewBox="0 0 65 65" fill="none" xmlns="http://www.w3.org/2000/svg">
<path d="M52.3408 15.6479L52.7565 15.3701V15.3701L52.3408 15.6479ZM52.3408 43.9353L52.7565 44.213L52.3408 43.9353ZM49.3519 46.9242L49.6297 47.3399L49.3519 46.9242ZM37.9166 48.7462L37.9144 48.2462C37.6391 48.2474 37.4166 48.4709 37.4166 48.7462H37.9166ZM37.9166 48.7499L38.3638 48.9735C38.3985 48.9041 38.4166 48.8275 38.4166 48.7499H37.9166ZM33.3943 57.7944L32.9471 57.5708L33.3943 57.7944ZM31.6055 57.7944L31.1583 58.018H31.1583L31.6055 57.7944ZM27.0832 48.7499H26.5832C26.5832 48.8275 26.6013 48.9041 26.636 48.9735L27.0832 48.7499ZM27.0832 48.7462H27.5832C27.5832 48.4709 27.3607 48.2474 27.0854 48.2462L27.0832 48.7462ZM15.6479 46.9242L15.3701 47.3399H15.3701L15.6479 46.9242ZM12.659 43.9353L12.2433 44.213H12.2433L12.659 43.9353ZM12.659 15.6479L12.2433 15.3701L12.659 15.6479ZM15.6479 12.659L15.3701 12.2433V12.2433L15.6479 12.659ZM49.3519 12.659L49.0741 13.0747V13.0747L49.3519 12.659ZM54.6666 29.7916C54.6666 25.9982 54.6672 23.1156 54.4358 20.841C54.2035 18.558 53.7335 16.8322 52.7565 15.3701L51.9251 15.9257C52.7739 17.1961 53.2167 18.7383 53.4409 20.9422C53.666 23.1544 53.6666 25.9774 53.6666 29.7916H54.6666ZM52.7565 44.213C53.7335 42.751 54.2035 41.0251 54.4358 38.7422C54.6672 36.4676 54.6666 33.5849 54.6666 29.7916H53.6666C53.6666 33.6057 53.666 36.4287 53.4409 38.641C53.2167 40.8449 52.7739 42.3871 51.9251 43.6575L52.7565 44.213ZM49.6297 47.3399C50.8672 46.513 51.9297 45.4505 52.7565 44.213L51.9251 43.6575C51.1712 44.7858 50.2024 45.7545 49.0741 46.5084L49.6297 47.3399ZM37.9188 49.2462C40.8383 49.2335 43.1317 49.1772 44.999 48.919C46.8744 48.6598 48.3525 48.1933 49.6297 47.3399L49.0741 46.5084C47.9643 47.25 46.6467 47.6818 44.8621 47.9285C43.0694 48.1763 40.8387 48.2335 37.9144 48.2462L37.9188 49.2462ZM38.4166 48.7499V48.7462H37.4166V48.7499H38.4166ZM33.8416 58.018L38.3638 48.9735L37.4694 48.5263L32.9471 57.5708L33.8416 58.018ZM31.1583 58.018C31.7111 59.1236 33.2888 59.1236 33.8416 58.018L32.9471 57.5708C32.7629 57.9393 32.237 57.9393 32.0527 57.5708L31.1583 58.018ZM26.636 48.9735L31.1583 58.018L32.0527 57.5708L27.5305 48.5263L26.636 48.9735ZM26.5832 48.7462V48.7499H27.5832V48.7462H26.5832ZM15.3701 47.3399C16.6473 48.1933 18.1254 48.6598 20.0008 48.919C21.8681 49.1772 24.1616 49.2335 27.0811 49.2462L27.0854 48.2462C24.1612 48.2335 21.9304 48.1763 20.1377 47.9285C18.3531 47.6818 17.0355 47.25 15.9257 46.5084L15.3701 47.3399ZM12.2433 44.213C13.0701 45.4505 14.1326 46.513 15.3701 47.3399L15.9257 46.5084C14.7974 45.7545 13.8286 44.7858 13.0747 43.6575L12.2433 44.213ZM10.3333 29.7916C10.3333 33.5849 10.3326 36.4676 10.564 38.7422C10.7963 41.0251 11.2663 42.751 12.2433 44.213L13.0747 43.6575C12.2259 42.3871 11.7831 40.8449 11.5589 38.641C11.3339 36.4287 11.3333 33.6057 11.3333 29.7916H10.3333ZM12.2433 15.3701C11.2663 16.8322 10.7963 18.558 10.564 20.841C10.3326 23.1156 10.3333 25.9982 10.3333 29.7916H11.3333C11.3333 25.9774 11.3339 23.1544 11.5589 20.9422C11.7831 18.7383 12.2259 17.1961 13.0747 15.9257L12.2433 15.3701ZM15.3701 12.2433C14.1326 13.0701 13.0701 14.1326 12.2433 15.3701L13.0747 15.9257C13.8286 14.7974 14.7974 13.8286 15.9257 13.0747L15.3701 12.2433ZM29.7916 10.3333C25.9982 10.3333 23.1156 10.3326 20.841 10.564C18.558 10.7963 16.8322 11.2663 15.3701 12.2433L15.9257 13.0747C17.1961 12.2259 18.7383 11.7831 20.9422 11.5589C23.1544 11.3339 25.9774 11.3333 29.7916 11.3333V10.3333ZM35.2082 10.3333H29.7916V11.3333H35.2082V10.3333ZM49.6297 12.2433C48.1676 11.2663 46.4418 10.7963 44.1588 10.564C41.8842 10.3326 39.0016 10.3333 35.2082 10.3333V11.3333C39.0224 11.3333 41.8454 11.3339 44.0576 11.5589C46.2615 11.7831 47.8038 12.2259 49.0741 13.0747L49.6297 12.2433ZM52.7565 15.3701C51.9297 14.1326 50.8672 13.0701 49.6297 12.2433L49.0741 13.0747C50.2024 13.8286 51.1712 14.7974 51.9251 15.9257L52.7565 15.3701Z" fill="#79A3B1"/>
<ellipse cx="43.3333" cy="29.7916" rx="2.70833" ry="2.70833" fill="#79A3B1"/>
<ellipse cx="32.5001" cy="29.7916" rx="2.70833" ry="2.70833" fill="#79A3B1"/>
<ellipse cx="21.6666" cy="29.7916" rx="2.70833" ry="2.70833" fill="#79A3B1"/>
</svg>
