<svg width="40" height="40" viewBox="0 0 40 40" fill="none" xmlns="http://www.w3.org/2000/svg">
<path d="M24.1666 16.6672C24.1666 15.3479 25.9213 14.9983 26.3868 16.2326C27.5128 19.2185 28.3333 21.8896 28.3333 23.3337C28.3333 27.9361 24.6024 31.667 20 31.667C15.3976 31.667 11.6666 27.9361 11.6666 23.3337C11.6666 21.7822 12.6137 18.8145 13.8692 15.5617C15.4957 11.348 16.3089 9.24117 17.3128 9.12769C17.634 9.09138 17.9844 9.15667 18.271 9.30621C19.1666 9.77356 19.1666 12.0714 19.1666 16.6672C19.1666 18.0479 20.2859 19.1672 21.6666 19.1672C23.0474 19.1672 24.1666 18.0479 24.1666 16.6672Z" stroke="#456268"/>
<path d="M18.3334 31.6666L17.8954 30.5717C17.136 28.6733 17.4561 26.5132 18.7334 24.9166V24.9166C19.3827 24.1049 20.6173 24.1049 21.2667 24.9166V24.9166C22.5439 26.5132 22.864 28.6733 22.1047 30.5717L21.6667 31.6666" stroke="#456268"/>
</svg>
