<svg width="50" height="50" viewBox="0 0 50 50" fill="none" xmlns="http://www.w3.org/2000/svg">
<path d="M8.3335 25C8.3335 17.8034 8.3335 14.2051 10.2738 11.7513C10.7072 11.203 11.2031 10.7071 11.7514 10.2736C14.2052 8.33337 17.8035 8.33337 25.0002 8.33337V8.33337C32.1968 8.33337 35.7951 8.33337 38.2489 10.2736C38.7972 10.7071 39.2931 11.203 39.7266 11.7513C41.6668 14.2051 41.6668 17.8034 41.6668 25V37.6667C41.6668 39.5523 41.6668 40.4951 41.081 41.0809C40.4953 41.6667 39.5525 41.6667 37.6668 41.6667H25.0002C17.8035 41.6667 14.2052 41.6667 11.7514 39.7265C11.2031 39.293 10.7072 38.7971 10.2738 38.2488C8.3335 35.795 8.3335 32.1967 8.3335 25V25Z" stroke="#456268"/>
<path d="M18.75 22.9166L31.25 22.9166" stroke="#456268" stroke-linecap="round" stroke-linejoin="round"/>
<path d="M25 31.25H31.25" stroke="#456268" stroke-linecap="round" stroke-linejoin="round"/>
</svg>
