<svg width="50" height="50" viewBox="0 0 50 50" fill="none" xmlns="http://www.w3.org/2000/svg">
<circle cx="25" cy="25" r="19.75" fill="#456268" stroke="#456268" stroke-width="2" stroke-linecap="round"/>
<path d="M17.1288 32.0059C18.0018 32.762 19.198 33.3438 20.5563 33.7359C21.9225 34.1303 23.4538 34.3333 25.0003 34.3333C26.5468 34.3333 28.0781 34.1303 29.4443 33.7359C30.8027 33.3438 31.9989 32.762 32.8719 32.0059" stroke="#FCF8EC" stroke-width="2" stroke-linecap="round"/>
<path d="M18.7503 23.1667C20.039 23.1667 21.0837 22.122 21.0837 20.8333C21.0837 19.5447 20.039 18.5 18.7503 18.5C17.4617 18.5 16.417 19.5447 16.417 20.8333C16.417 22.122 17.4617 23.1667 18.7503 23.1667Z" fill="#FCF8EC" stroke="#FCF8EC" stroke-width="0.5" stroke-linecap="round"/>
<path d="M31.2503 23.1667C32.539 23.1667 33.5837 22.122 33.5837 20.8333C33.5837 19.5447 32.539 18.5 31.2503 18.5C29.9617 18.5 28.917 19.5447 28.917 20.8333C28.917 22.122 29.9617 23.1667 31.2503 23.1667Z" fill="#FCF8EC" stroke="#FCF8EC" stroke-width="0.5" stroke-linecap="round"/>
</svg>
