<svg width="70" height="70" viewBox="0 0 70 70" fill="none" xmlns="http://www.w3.org/2000/svg">
<circle cx="35" cy="35" r="27.25" stroke="#456268" stroke-width="2" stroke-linecap="round"/>
<path d="M24.2419 44.5059C25.4074 45.5153 27.0244 46.3075 28.8895 46.8459C30.7624 47.3866 32.8685 47.6667 35.0002 47.6667C37.1318 47.6667 39.2379 47.3866 41.1108 46.8459C42.9759 46.3075 44.5929 45.5153 45.7584 44.5059" stroke="#456268" stroke-width="2" stroke-linecap="round"/>
<path d="M26.2502 32.3333C27.9991 32.3333 29.4168 30.9156 29.4168 29.1667C29.4168 27.4178 27.9991 26 26.2502 26C24.5013 26 23.0835 27.4178 23.0835 29.1667C23.0835 30.9156 24.5013 32.3333 26.2502 32.3333Z" fill="#456268" stroke="#456268" stroke-width="0.5" stroke-linecap="round"/>
<path d="M43.7502 32.3333C45.4991 32.3333 46.9168 30.9156 46.9168 29.1667C46.9168 27.4178 45.4991 26 43.7502 26C42.0013 26 40.5835 27.4178 40.5835 29.1667C40.5835 30.9156 42.0013 32.3333 43.7502 32.3333Z" fill="#456268" stroke="#456268" stroke-width="0.5" stroke-linecap="round"/>
</svg>
