<svg width="20" height="20" viewBox="0 0 20 20" fill="none" xmlns="http://www.w3.org/2000/svg">
<path d="M3.70881 11.5901L9.50266 17.0328C9.6478 17.1691 9.72038 17.2373 9.7993 17.2719C9.92718 17.3279 10.0727 17.3279 10.2005 17.2719C10.2795 17.2373 10.352 17.1691 10.4972 17.0328L16.291 11.5901C17.9212 10.0587 18.1191 7.53875 16.7481 5.77164L16.4903 5.43937C14.8501 3.3254 11.5579 3.67993 10.4055 6.09463C10.2427 6.43572 9.75716 6.43572 9.59436 6.09463C8.44189 3.67993 5.14969 3.3254 3.50954 5.43937L3.25174 5.77164C1.88071 7.53875 2.07867 10.0587 3.70881 11.5901Z" stroke="#456268"/>
</svg>
