<svg width="65" height="65" viewBox="0 0 65 65" fill="none" xmlns="http://www.w3.org/2000/svg">
<path d="M12.0538 37.668L31.8152 56.2317C32.1397 56.5365 32.3019 56.6889 32.4999 56.6889C32.6979 56.6889 32.8602 56.5365 33.1846 56.2317L52.946 37.668C56.1243 34.6823 57.7135 33.1895 58.4544 31.4317C59.2079 29.6442 59.3636 27.6612 58.8985 25.778C58.4412 23.9261 57.1046 22.2034 54.4315 18.758L53.5937 17.6781C50.3715 13.5252 48.7604 11.4487 47.0335 10.6313C44.3166 9.34533 41.1082 9.69084 38.7274 11.5257C37.2141 12.6921 36.082 15.064 33.818 19.8077C33.4648 20.5477 33.2882 20.9177 33.0705 21.069C32.7275 21.3073 32.2724 21.3073 31.9293 21.069C31.7116 20.9177 31.535 20.5477 31.1819 19.8077C28.9178 15.064 27.7858 12.6921 26.2724 11.5257C23.8916 9.69084 20.6832 9.34533 17.9663 10.6313C16.2394 11.4487 14.6283 13.5252 11.4062 17.6782L10.5683 18.758C7.89522 22.2034 6.55866 23.9261 6.10129 25.778C5.6362 27.6612 5.79198 29.6442 6.54542 31.4317C7.28635 33.1895 8.87551 34.6823 12.0538 37.668Z" stroke="#79A3B1"/>
</svg>
