<svg width="20" height="20" viewBox="0 0 20 20" fill="none" xmlns="http://www.w3.org/2000/svg">
<path d="M3.70893 11.5901L9.50278 17.0328L9.5028 17.0328C9.64793 17.1692 9.7205 17.2373 9.79942 17.2719C9.9273 17.3279 10.0728 17.3279 10.2007 17.2719C10.2796 17.2373 10.3522 17.1691 10.4973 17.0328L16.2911 11.5901C17.9213 10.0587 18.1192 7.53875 16.7482 5.77164L16.4904 5.43937C14.8503 3.3254 11.5581 3.67993 10.4056 6.09463C10.2428 6.43572 9.75728 6.43572 9.59448 6.09463C8.44202 3.67993 5.14981 3.3254 3.50966 5.43937L3.25186 5.77164C1.88083 7.53875 2.07879 10.0587 3.70893 11.5901Z" fill="#456268" stroke="#456268" stroke-width="2"/>
</svg>
