<svg width="70" height="70" viewBox="0 0 70 70" fill="none" xmlns="http://www.w3.org/2000/svg">
<path d="M37.9168 26.2501C37.9168 27.8609 36.611 29.1668 35.0002 29.1668C33.3893 29.1668 32.0835 27.8609 32.0835 26.2501C32.0835 24.6393 33.3893 23.3334 35.0002 23.3334C36.611 23.3334 37.9168 24.6393 37.9168 26.2501Z" fill="#456268"/>
<path d="M35.0002 34.2709C36.2083 34.2709 37.1877 35.2503 37.1877 36.4584V51.0418C37.1877 52.2499 36.2083 53.2293 35.0002 53.2293C33.792 53.2293 32.8127 52.2499 32.8127 51.0418V36.4584C32.8127 35.2503 33.792 34.2709 35.0002 34.2709Z" fill="#456268"/>
<path fill-rule="evenodd" clip-rule="evenodd" d="M41.622 11.6453C38.4371 6.98544 31.5631 6.98542 28.3782 11.6453L27.1184 13.4885C19.2258 25.0362 12.4447 37.3055 6.86587 50.132L6.60274 50.737C4.63675 55.2571 7.60697 60.3896 12.5056 60.9371C27.4554 62.608 42.5448 62.608 57.4946 60.9371C62.3932 60.3896 65.3634 55.2571 63.3975 50.737L63.1343 50.132C57.5555 37.3055 50.7744 25.0362 42.8818 13.4885L41.622 11.6453ZM31.9901 14.114C33.4378 11.9959 36.5624 11.9959 38.0101 14.114L39.2698 15.9572C47.0066 27.2768 53.6538 39.3038 59.1224 51.877L59.3855 52.4819C60.1771 54.3021 58.9811 56.3687 57.0086 56.5892C42.3818 58.224 27.6184 58.224 12.9916 56.5892C11.0191 56.3687 9.82305 54.3021 10.6147 52.482L10.8778 51.877C16.3464 39.3038 22.9936 27.2768 30.7304 15.9571L31.9901 14.114Z" fill="#456268"/>
</svg>
