<svg width="56" height="56" viewBox="0 0 56 56" fill="none" xmlns="http://www.w3.org/2000/svg">
<path d="M23.6687 15.4643C25.5041 10.8887 26.4218 8.60083 27.9999 8.60083C29.578 8.60083 30.4957 10.8887 32.3311 15.4643L32.4166 15.6774C33.4535 18.2624 33.9719 19.5549 35.0286 20.3405C36.0852 21.1261 37.4723 21.2504 40.2464 21.4988L40.748 21.5437C45.2882 21.9503 47.5583 22.1536 48.0441 23.5979C48.5298 25.0422 46.8439 26.576 43.4722 29.6436L42.3468 30.6674C40.64 32.2203 39.7866 32.9968 39.3888 34.0144C39.3146 34.2042 39.2529 34.3987 39.2041 34.5966C38.9427 35.6575 39.1926 36.7838 39.6924 39.0366L39.848 39.7378C40.7666 43.8779 41.2258 45.948 40.4239 46.8409C40.1243 47.1745 39.7348 47.4148 39.3022 47.5328C38.1444 47.8487 36.5006 46.5093 33.213 43.8304C31.0543 42.0713 29.9749 41.1918 28.7357 40.9939C28.2482 40.9161 27.7515 40.9161 27.2641 40.9939C26.0248 41.1918 24.9455 42.0713 22.7867 43.8304C19.4992 46.5093 17.8554 47.8487 16.6976 47.5328C16.265 47.4148 15.8755 47.1745 15.5759 46.8409C14.7739 45.948 15.2332 43.8779 16.1518 39.7378L16.3074 39.0366C16.8072 36.7838 17.0571 35.6575 16.7956 34.5966C16.7469 34.3987 16.6852 34.2042 16.611 34.0144C16.2132 32.9968 15.3598 32.2203 13.6529 30.6674L12.5276 29.6436C9.15585 26.576 7.46997 25.0422 7.95572 23.5979C8.44147 22.1536 10.7116 21.9503 15.2518 21.5437L15.7533 21.4988C18.5275 21.2504 19.9145 21.1261 20.9712 20.3405C22.0278 19.5549 22.5463 18.2624 23.5832 15.6774L23.6687 15.4643Z" stroke="#FCF8EC" stroke-width="2"/>
</svg>
