<svg width="56" height="56" viewBox="0 0 56 56" fill="none" xmlns="http://www.w3.org/2000/svg">
<path d="M24.0503 16.8463C25.5485 13.1114 26.2976 11.2439 27.5146 10.9851C27.8346 10.9171 28.1653 10.9171 28.4853 10.9851C29.7024 11.2439 30.4514 13.1114 31.9496 16.8463C32.8016 18.9703 33.2276 20.0323 34.0247 20.7547C34.2483 20.9573 34.491 21.1377 34.7494 21.2934C35.6707 21.8487 36.8207 21.9517 39.1209 22.1577C43.0147 22.5064 44.9616 22.6808 45.5561 23.7909C45.6792 24.0208 45.763 24.2697 45.8038 24.5273C46.0009 25.771 44.5696 27.0732 41.7071 29.6774L40.9122 30.4006C39.5739 31.6182 38.9048 32.2269 38.5178 32.9867C38.2856 33.4424 38.1299 33.9332 38.057 34.4395C37.9354 35.2834 38.1313 36.1666 38.5232 37.9329L38.6632 38.5639C39.366 41.7315 39.7174 43.3153 39.2788 44.0938C38.8848 44.7931 38.159 45.2407 37.3573 45.279C36.4647 45.3217 35.2071 44.2969 32.6918 42.2473C31.0346 40.8969 30.2061 40.2218 29.2862 39.958C28.4457 39.717 27.5543 39.717 26.7137 39.958C25.7939 40.2218 24.9653 40.8969 23.3081 42.2473C20.7929 44.2969 19.5352 45.3217 18.6427 45.279C17.8409 45.2407 17.1152 44.7931 16.7212 44.0938C16.2825 43.3153 16.6339 41.7315 17.3367 38.564L17.4767 37.9329C17.8686 36.1666 18.0645 35.2834 17.9429 34.4395C17.87 33.9332 17.7143 33.4424 17.4822 32.9867C17.0951 32.2269 16.426 31.6182 15.0877 30.4006L14.2928 29.6774C11.4303 27.0732 9.99906 25.771 10.1962 24.5273C10.237 24.2697 10.3207 24.0208 10.4438 23.7909C11.0384 22.6808 12.9853 22.5064 16.879 22.1577C19.1792 21.9517 20.3293 21.8487 21.2506 21.2934C21.509 21.1377 21.7517 20.9573 21.9753 20.7547C22.7723 20.0323 23.1983 18.9703 24.0503 16.8463Z" fill="#456268" stroke="#456268" stroke-width="2"/>
</svg>
