<svg width="83" height="80" viewBox="0 0 83 80" fill="none" xmlns="http://www.w3.org/2000/svg">
<path d="M29.3189 55.8347L29.5799 56.3749L29.3189 55.8347ZM29.3189 24.1653L29.0579 24.7056L29.3189 24.1653ZM29.58 23.6251L60.4904 38.5593L59.9684 39.6398L29.0579 24.7056L29.58 23.6251ZM60.4904 41.4407L29.5799 56.3749L29.0579 55.2944L59.9683 40.3602L60.4904 41.4407ZM28.1969 25.2458V54.7542H26.9969V25.2458H28.1969ZM29.5799 56.3749C28.3847 56.9524 26.9969 56.0816 26.9969 54.7542H28.1969C28.1969 55.1967 28.6595 55.4869 29.0579 55.2944L29.5799 56.3749ZM60.4904 38.5593C61.6957 39.1417 61.6956 40.8584 60.4904 41.4407L59.9683 40.3602C60.2697 40.2146 60.2697 39.7854 59.9684 39.6398L60.4904 38.5593ZM29.0579 24.7056C28.6595 24.5131 28.1969 24.8034 28.1969 25.2458H26.9969C26.9969 23.9184 28.3847 23.0476 29.58 23.6251L29.0579 24.7056Z" fill="#456268"/>
<ellipse cx="41.3954" cy="40" rx="31.0465" ry="30" stroke="#456268" stroke-width="1.2"/>
</svg>
